<?xml version="1.0" standalone="no"?>
<!DOCTYPE svg PUBLIC "-//W3C//DTD SVG 20010904//EN"
 "http://www.w3.org/TR/2001/REC-SVG-20010904/DTD/svg10.dtd">
<svg version="1.0" xmlns="http://www.w3.org/2000/svg"
 width="728.000000pt" height="835.000000pt" viewBox="0 0 728.000000 835.000000"
 preserveAspectRatio="xMidYMid meet">

<g transform="translate(0.000000,835.000000) scale(0.100000,-0.100000)"
fill="#000000" stroke="none">
<path d="M3075 8162 c-4 -29 -17 -64 -27 -78 -25 -31 -62 -29 -66 4 -4 27 -10
28 -38 1 -34 -32 -87 -38 -319 -39 -237 0 -285 -8 -395 -66 -143 -75 -283
-259 -327 -427 -21 -83 -13 -197 22 -307 37 -115 56 -151 181 -336 l106 -158
-6 -85 c-11 -124 -17 -127 -66 -30 -95 188 -264 338 -459 409 -116 42 -197 41
-357 -5 -154 -44 -295 -98 -356 -136 -27 -16 -50 -29 -52 -29 -3 0 -26 13 -53
30 -80 49 -236 63 -404 36 -123 -20 -224 -76 -249 -137 -12 -29 -8 -176 6
-212 3 -9 -8 -28 -30 -48 -45 -40 -46 -66 -6 -145 45 -90 107 -148 215 -199
130 -62 135 -70 135 -214 0 -288 30 -535 95 -798 83 -337 124 -423 266 -566
95 -95 99 -100 139 -205 60 -155 60 -154 12 -206 -65 -71 -65 -121 1 -305 43
-119 75 -149 195 -180 75 -19 97 -30 118 -54 54 -65 54 -63 93 -507 13 -142
25 -231 37 -260 38 -97 103 -164 184 -189 19 -6 85 -15 145 -21 61 -5 144 -14
185 -20 41 -5 80 -10 87 -10 6 0 34 -20 62 -44 42 -35 81 -54 212 -101 99 -36
164 -65 170 -76 12 -23 12 -86 -1 -94 -5 -3 -65 12 -132 34 -68 22 -139 42
-158 46 -57 10 -410 -40 -521 -75 -93 -28 -103 -43 -107 -149 -3 -100 11 -134
77 -175 49 -31 56 -42 34 -54 -11 -7 -32 -5 -62 3 -124 36 -203 28 -345 -36
-50 -22 -113 -50 -139 -62 -157 -69 -242 -293 -191 -507 40 -170 165 -341 302
-413 152 -80 250 -85 412 -23 259 100 336 179 371 380 6 36 15 69 21 72 5 3
22 -5 36 -19 15 -14 98 -64 185 -112 86 -47 161 -94 166 -103 5 -9 12 -46 16
-82 14 -131 64 -292 128 -409 90 -164 263 -350 405 -435 99 -59 247 -111 362
-127 76 -11 96 -10 190 9 72 14 129 33 180 59 118 61 580 353 629 398 94 86
180 238 206 363 15 72 18 77 40 69 21 -9 19 -39 -6 -81 -50 -85 -30 -238 41
-308 43 -44 74 -48 114 -17 l26 21 188 -51 c256 -69 317 -82 349 -76 16 4 89
35 163 71 l135 65 54 -11 c150 -28 464 13 554 74 85 57 102 158 37 217 -31 29
-32 31 -14 44 32 24 68 17 188 -36 146 -63 235 -83 338 -75 151 12 359 81 393
130 21 28 20 125 -1 155 -20 28 -72 51 -114 51 -70 0 -123 24 -234 103 -268
194 -320 228 -373 243 -39 11 -57 23 -65 40 -11 23 -8 29 38 69 28 24 59 62
69 85 16 36 17 46 6 73 -54 129 -81 231 -81 303 0 129 -45 315 -105 435 -19
36 -57 147 -85 245 -134 466 -182 610 -255 774 -26 58 -71 169 -100 247 -64
170 -125 300 -160 341 -41 49 -84 69 -180 86 -49 9 -151 27 -225 41 -165 31
-340 51 -522 60 -99 5 -138 11 -138 19 0 7 18 30 41 50 22 21 44 48 49 61 11
29 -26 302 -46 332 -8 13 -27 29 -42 37 -34 17 -268 56 -616 100 -185 24 -273
39 -283 49 -15 15 -82 299 -83 348 0 18 11 37 34 57 29 25 49 32 142 46 99 15
114 15 164 1 83 -24 390 -35 622 -23 173 8 206 8 264 -7 77 -19 116 -13 144
22 18 23 20 41 20 147 0 79 6 140 16 176 22 78 29 262 15 373 -13 94 -57 366
-72 447 -19 95 -28 187 -23 235 3 29 -1 80 -10 120 -9 39 -21 158 -26 265 -12
255 -26 337 -59 371 -34 33 -181 90 -235 90 -22 0 -79 -4 -126 -8 -81 -8 -90
-11 -159 -58 -40 -27 -80 -59 -87 -70 -22 -31 -16 -85 16 -150 34 -69 36 -82
15 -121 -22 -43 -18 -76 14 -120 44 -61 141 -148 204 -184 32 -18 62 -40 67
-50 15 -27 12 -177 -4 -235 -8 -27 -28 -95 -46 -150 -46 -146 -57 -236 -42
-340 7 -47 10 -90 7 -95 -3 -5 -27 0 -52 11 -90 38 -189 59 -348 74 -88 8
-186 15 -218 15 l-57 0 -82 76 c-93 87 -192 140 -323 175 -71 18 -105 20 -310
18 -126 -1 -236 -1 -242 0 -17 2 -43 55 -43 89 0 41 17 52 77 52 74 0 108 20
126 72 8 24 27 120 42 213 29 181 30 283 5 343 -12 26 -12 38 -2 62 7 17 17
43 24 60 10 23 9 41 -1 82 -7 29 -18 114 -25 189 -7 74 -17 145 -21 158 -5 16
2 41 24 84 17 34 34 85 37 113 6 46 4 53 -14 58 -17 6 -22 19 -28 74 -4 37
-12 83 -19 102 l-13 35 -7 -53z m-129 -153 c6 -11 47 -8 93 6 22 7 23 6 16
-23 -6 -28 -3 -33 18 -41 35 -14 40 -25 24 -63 -19 -45 -42 -63 -105 -83 -48
-16 -66 -16 -193 -5 -107 10 -153 11 -201 2 -113 -21 -130 -65 -83 -222 39
-130 33 -170 -35 -247 -30 -35 -41 -57 -46 -93 -7 -53 -21 -57 -45 -14 -17 33
-58 54 -103 54 -88 0 -123 -100 -71 -205 14 -30 42 -67 61 -82 54 -40 58 -55
33 -112 -27 -64 -50 -86 -71 -68 -26 21 -184 258 -222 334 -36 73 -70 181 -81
263 -24 170 143 447 324 540 99 50 125 54 386 60 138 3 260 7 272 8 12 1 25
-3 29 -9z m107 -281 c5 -13 11 -70 14 -128 5 -98 4 -106 -16 -124 -11 -11 -21
-29 -21 -42 0 -24 24 -54 44 -54 6 0 17 -5 24 -12 15 -15 -12 -48 -39 -48 -10
0 -25 -7 -34 -16 -15 -15 -15 -18 4 -38 12 -12 21 -28 21 -35 0 -6 11 -33 25
-59 25 -47 33 -96 16 -106 -14 -9 -41 4 -41 20 0 8 -5 14 -10 14 -7 0 -7 -7 0
-20 6 -12 10 -37 8 -58 -2 -30 -9 -40 -33 -52 -29 -14 -29 -15 -7 -18 13 -2
30 2 37 8 23 19 43 5 38 -24 -8 -42 -27 -49 -144 -52 -108 -3 -130 -7 -115
-21 8 -8 110 -24 179 -28 58 -4 63 -8 49 -39 -12 -27 -75 -42 -115 -27 -28 11
-37 6 -37 -21 0 -15 8 -18 54 -18 30 0 61 -3 70 -6 22 -8 20 -57 -3 -85 -17
-21 -29 -24 -109 -27 l-89 -4 -134 59 c-109 47 -143 67 -187 111 -30 28 -56
52 -58 52 -12 0 -1 -50 19 -84 18 -33 46 -53 171 -123 83 -46 158 -91 168
-100 10 -9 23 -34 30 -55 6 -22 27 -56 46 -76 36 -39 45 -57 56 -108 9 -42
-13 -64 -63 -64 -50 0 -99 -18 -111 -40 -19 -35 14 -39 97 -13 71 22 81 12 59
-55 -50 -150 -189 -231 -345 -203 -126 23 -232 96 -330 224 -60 80 -59 76 -26
227 9 41 22 142 29 223 13 144 14 149 44 180 39 40 79 121 88 174 6 40 5 42
-35 67 -63 40 -101 99 -101 157 0 40 4 51 24 65 35 22 72 2 106 -56 28 -48 54
-59 89 -40 18 9 21 20 21 70 0 53 4 64 33 97 18 21 41 50 50 66 10 15 26 27
36 27 10 0 33 8 51 17 32 15 38 15 99 0 89 -23 136 -22 161 3 11 11 20 28 20
38 0 36 -20 42 -143 42 -116 0 -153 -8 -170 -36 -14 -24 -24 -15 -30 26 -3 23
-18 82 -33 131 -45 146 -38 150 266 144 224 -4 224 -4 233 -27z m1730 -159
c45 -17 88 -37 96 -44 15 -15 7 -35 -15 -35 -11 0 -14 -16 -14 -71 l0 -70 -37
-16 c-21 -8 -67 -18 -103 -20 -36 -3 -80 -11 -97 -19 -20 -9 -46 -13 -66 -9
-23 5 -37 2 -46 -8 -10 -13 -7 -18 16 -29 22 -11 27 -20 25 -41 -3 -26 -1 -27
45 -27 58 0 118 -27 157 -69 17 -17 35 -31 41 -31 6 0 17 30 25 67 7 36 21 94
31 127 11 34 19 70 19 80 0 22 32 95 41 96 14 0 21 -53 34 -270 8 -124 19
-241 25 -260 5 -19 10 -84 10 -145 0 -70 7 -144 20 -205 11 -52 27 -138 35
-190 63 -386 67 -469 28 -605 -12 -43 -16 -95 -16 -185 2 -170 -5 -176 -142
-145 -57 13 -82 14 -168 4 -132 -16 -479 -16 -582 0 -129 20 -141 25 -162 79
-22 56 -24 251 -4 347 28 139 45 198 61 217 15 19 20 20 123 9 211 -23 339
-70 447 -164 36 -32 68 -57 73 -57 4 0 -8 31 -27 68 -58 115 -76 184 -76 291
0 84 5 113 41 231 65 211 72 245 66 340 -3 47 -8 93 -12 103 -4 9 -39 34 -79
54 -47 24 -96 62 -143 110 -81 81 -87 100 -52 161 l22 37 -42 81 c-22 45 -41
88 -41 97 0 15 20 33 102 94 53 39 82 47 134 35 30 -7 48 -6 65 4 35 19 51 17
142 -17z m-3157 -550 c207 -64 363 -196 474 -402 70 -129 88 -232 54 -312 -15
-37 -15 -37 -62 -31 -26 3 -81 9 -122 12 -196 15 -401 -86 -493 -245 -33 -55
-34 -56 -83 -59 -108 -6 -228 69 -281 176 -27 55 -28 63 -31 238 -3 137 0 202
13 269 18 99 54 202 86 246 26 37 94 72 201 103 103 31 157 32 244 5z m-847
-125 c102 -30 124 -79 122 -272 -1 -110 1 -127 21 -162 23 -39 23 -39 5 -108
l-18 -69 55 -189 c58 -198 123 -390 200 -586 25 -64 64 -185 87 -270 23 -84
50 -184 60 -221 10 -38 23 -108 30 -155 14 -115 27 -164 42 -159 24 8 18 311
-9 535 -7 50 -6 52 17 52 39 0 121 -54 182 -120 64 -69 122 -168 167 -283 36
-91 34 -95 -42 -160 -104 -88 -168 -126 -270 -158 -92 -30 -102 -35 -145 -85
-25 -30 -56 -57 -70 -60 -36 -9 -74 12 -111 61 -18 25 -74 80 -125 124 -165
141 -212 229 -297 552 -67 256 -99 476 -101 709 0 63 -4 152 -7 197 -10 112
-10 112 -210 206 -51 24 -102 79 -137 146 -32 64 -32 72 6 106 l32 28 -8 91
c-11 125 -9 145 17 173 80 86 343 126 507 77z m338 9 c-3 -10 -15 -44 -26 -76
-37 -99 -53 -197 -58 -347 -7 -176 6 -272 47 -357 36 -73 82 -115 167 -156 35
-16 62 -34 60 -41 -2 -6 -19 -19 -38 -28 -28 -14 -47 -15 -108 -8 -40 4 -79
14 -86 21 -7 8 -36 95 -65 194 l-51 179 17 77 c17 77 17 78 -7 115 -20 34 -23
48 -21 138 2 56 -2 122 -6 149 -12 60 5 85 86 127 67 34 97 38 89 13z m2348
-538 c115 -31 223 -93 300 -171 70 -70 72 -71 135 -77 35 -4 68 -11 72 -15 5
-5 -4 -62 -19 -128 -25 -105 -28 -137 -26 -274 0 -85 2 -168 4 -185 4 -30 4
-30 -68 -44 -40 -7 -79 -11 -87 -8 -7 3 -66 88 -130 189 -127 202 -143 224
-151 216 -6 -5 21 -116 74 -308 25 -90 27 -160 5 -203 -35 -68 -56 -82 -214
-138 -58 -20 -98 -40 -90 -42 8 -3 56 -10 106 -16 50 -6 117 -20 148 -31 63
-21 155 -79 173 -108 10 -18 28 -81 107 -382 27 -102 67 -194 113 -258 18 -26
33 -54 33 -63 0 -8 17 -23 38 -32 51 -24 93 -60 84 -73 -4 -7 -144 -71 -312
-144 -393 -170 -445 -197 -533 -280 -149 -140 -283 -368 -322 -550 -4 -19 -20
-62 -35 -96 -44 -99 -99 -133 -121 -76 -8 20 -7 50 7 122 15 80 34 129 123
319 117 247 141 281 279 393 180 145 303 207 689 353 74 27 100 45 66 45 -10
0 -83 -11 -161 -25 -189 -33 -313 -82 -560 -220 -35 -19 -66 -35 -70 -35 -4 0
20 27 53 61 73 74 168 138 255 172 65 25 233 73 279 79 13 2 29 11 35 21 15
25 -9 38 -54 30 -79 -14 -331 -108 -469 -174 -196 -95 -238 -109 -330 -109
-106 0 -145 13 -200 68 -97 98 -251 370 -251 444 0 78 80 190 245 343 58 54
105 104 105 113 0 17 -10 16 -175 -22 -60 -14 -135 -26 -165 -26 -52 0 -60 3
-118 51 -79 64 -207 210 -278 316 -48 73 -60 85 -116 112 -71 35 -145 54 -154
40 -3 -5 36 -52 86 -104 139 -144 167 -221 132 -362 -23 -90 -54 -147 -115
-210 -55 -57 -71 -56 -92 10 -69 217 -218 402 -368 458 l-59 22 5 39 c3 22 29
76 62 130 62 100 60 84 35 228 -30 176 64 354 233 437 88 44 153 56 266 51
131 -7 158 -20 214 -106 124 -185 299 -283 482 -269 150 12 245 87 294 235 21
63 28 186 12 227 -14 35 -2 54 38 58 87 11 397 -1 456 -18z m-2045 -551 c0
-25 5 -76 11 -114 l12 -68 -36 -59 c-54 -91 -69 -124 -86 -187 -18 -67 -32
-78 -50 -40 -32 72 -16 230 39 372 30 78 84 157 101 147 5 -4 9 -26 9 -51z
m-260 26 c12 -7 12 -13 4 -27 -16 -26 -51 -28 -59 -4 -11 37 19 54 55 31z
m140 -6 c0 -3 -15 -47 -34 -98 -18 -50 -37 -108 -40 -128 -4 -21 -11 -40 -16
-43 -12 -7 -70 110 -70 141 0 22 31 54 99 103 43 30 61 38 61 25z m2817 -964
c479 -64 533 -75 533 -103 0 -27 -153 -128 -225 -148 -29 -9 -468 22 -545 39
-34 7 -35 9 -61 102 -32 110 -35 150 -15 150 8 0 149 -18 313 -40z m-2164 -82
c43 -57 397 -627 397 -639 0 -7 -14 -9 -37 -7 -62 8 -716 158 -743 171 -18 9
-35 38 -62 104 -21 50 -36 98 -33 105 3 8 22 20 43 28 43 15 106 56 176 114
49 41 215 154 228 155 4 1 18 -14 31 -31z m2746 -130 c5 -29 13 -84 16 -121
l7 -69 -49 -46 c-26 -26 -73 -60 -102 -76 l-54 -29 -141 6 c-78 4 -193 11
-256 16 l-115 10 -34 38 c-36 41 -101 166 -101 195 0 9 4 19 8 22 5 3 110 -4
233 -15 351 -30 341 -32 489 69 41 29 78 52 82 52 4 0 11 -24 17 -52z m-3280
-162 c14 -16 61 -134 61 -152 0 -8 -30 -12 -107 -12 -71 0 -125 -5 -158 -16
-69 -22 -82 -20 -100 14 -21 41 -20 74 3 65 84 -35 140 -22 187 41 30 41 70
73 91 74 6 0 17 -6 23 -14z m2786 -217 c13 -13 -12 -29 -46 -29 -29 0 -65 23
-56 36 7 12 88 6 102 -7z m-2520 -42 c233 -51 597 -135 720 -167 296 -77 350
-92 386 -106 21 -9 39 -20 39 -24 0 -17 -33 -41 -121 -85 -65 -32 -103 -45
-133 -45 -51 0 -582 103 -1056 206 -399 86 -460 102 -467 121 -7 19 51 79 102
106 115 60 231 58 530 -6z m3295 32 c119 -11 313 -43 350 -57 24 -9 23 -9 -10
-15 -19 -4 -62 -3 -95 2 -58 8 -82 1 -69 -21 8 -12 132 -73 187 -92 68 -23
126 -4 232 78 18 14 61 -1 101 -36 44 -39 94 -124 94 -160 0 -43 -61 -102
-148 -146 l-76 -37 -207 -3 c-216 -4 -234 -1 -429 53 -30 9 -109 19 -174 24
-107 7 -121 10 -134 29 -17 26 -29 27 -53 6 -15 -14 -24 -14 -51 -5 -18 6 -40
21 -50 33 -15 20 -18 21 -43 8 -33 -18 -45 -4 -45 52 0 33 -3 37 -22 35 -18
-2 -23 4 -28 33 -7 43 -17 60 -35 60 -16 0 -25 -22 -25 -62 0 -26 -2 -29 -15
-18 -25 21 -44 4 -47 -41 -4 -61 -24 -59 -52 5 -16 36 -34 60 -51 68 -43 19
-49 -1 -18 -68 33 -73 35 -120 5 -144 -30 -24 -120 -38 -292 -45 -348 -15
-449 -38 -355 -84 l29 -14 -22 -15 c-31 -20 -28 -42 6 -42 15 0 105 11 200 25
200 29 331 31 558 10 201 -19 573 -79 639 -104 150 -55 149 -54 181 -109 32
-53 64 -174 99 -367 9 -49 20 -110 25 -135 5 -25 18 -97 30 -160 51 -276 74
-374 166 -707 19 -67 34 -128 34 -137 0 -8 -11 -16 -26 -18 -23 -3 -32 -17
-78 -123 -93 -215 -174 -345 -215 -345 -60 0 -101 90 -131 288 -15 99 -10 169
30 412 23 144 24 161 7 155 -8 -4 -35 -50 -59 -103 -55 -122 -110 -207 -137
-215 -17 -4 -27 2 -41 26 -46 75 -162 481 -191 666 -13 88 -5 155 22 180 11
10 81 48 155 85 81 40 134 72 134 81 0 22 -29 18 -120 -15 -45 -16 -83 -30
-86 -30 -13 0 1 37 36 91 45 69 49 89 20 89 -20 0 -44 -21 -92 -80 -15 -19
-30 -31 -33 -29 -2 3 4 30 15 60 33 90 3 110 -50 34 -56 -82 -95 -98 -450
-189 -320 -82 -425 -100 -600 -99 -136 0 -167 3 -253 27 -125 33 -187 65 -255
129 -49 47 -53 55 -49 87 7 58 66 238 99 304 68 136 201 304 299 379 28 21
556 267 573 267 3 0 80 32 171 71 302 128 518 156 915 118z m-3802 -225 c151
-36 593 -129 1024 -215 422 -84 394 -84 555 -2 51 26 95 44 99 40 3 -3 7 -58
8 -123 l1 -116 -34 -28 c-46 -39 -138 -87 -181 -95 -23 -4 -136 13 -335 49
-661 121 -1114 222 -1162 259 -54 43 -128 257 -88 257 3 0 54 -12 113 -26z
m4627 -293 c49 -22 77 -53 97 -106 9 -22 27 -65 41 -95 44 -97 103 -252 137
-360 17 -58 36 -116 41 -130 12 -36 75 -254 94 -322 8 -32 21 -82 29 -110 21
-79 101 -395 136 -542 35 -145 52 -201 81 -263 27 -61 24 -75 -27 -132 -82
-91 -255 -161 -482 -194 -92 -14 -94 -14 -107 7 -8 12 -15 53 -17 91 l-3 70
90 6 c50 3 100 11 113 18 19 10 235 150 267 173 25 18 -10 17 -70 -1 -82 -26
-167 -28 -190 -5 -14 14 -15 33 -8 148 4 72 8 187 8 256 0 102 -3 125 -14 125
-10 0 -24 -34 -44 -110 -36 -139 -64 -205 -83 -198 -23 8 -19 131 22 683 16
220 14 413 -4 446 -8 14 -10 14 -21 0 -20 -24 -36 -111 -86 -461 -25 -181 -50
-340 -55 -352 -13 -31 -35 -29 -59 6 -20 27 -28 57 -50 169 -9 43 -29 78 -109
188 -110 150 -134 205 -154 346 -13 95 -3 219 29 362 20 88 29 71 36 -68 3
-60 10 -113 16 -119 10 -10 12 1 31 113 6 36 15 88 20 115 5 28 12 69 15 93
10 64 35 57 35 -10 0 -68 14 -94 29 -55 6 16 14 52 17 82 9 71 35 112 87 135
52 24 62 24 112 1z m-4074 -131 c218 -44 249 -53 289 -82 113 -81 210 -141
298 -184 122 -59 185 -81 259 -89 130 -14 144 -25 61 -50 -116 -35 -279 -55
-444 -56 l-163 -1 -68 36 c-118 63 -254 167 -379 291 -67 66 -129 132 -139
147 -20 32 -11 52 20 44 12 -3 132 -28 266 -56z m654 -124 c307 -53 275 -41
298 -109 28 -84 22 -91 -66 -82 -39 3 -98 15 -131 26 -75 26 -258 118 -314
158 -41 30 -49 57 -14 47 10 -2 112 -21 227 -40z m2783 19 c29 -9 59 -26 70
-40 20 -25 50 -191 39 -218 -3 -8 -29 -28 -59 -45 -61 -36 -72 -31 -83 41 -11
68 -37 158 -62 214 -13 28 -23 54 -23 57 0 11 67 6 118 -9z m-3631 -57 l49
-53 17 -174 c19 -188 34 -241 84 -287 50 -46 92 -61 197 -67 54 -4 105 -12
112 -18 16 -13 54 -94 54 -115 0 -7 -4 -15 -9 -18 -17 -11 -364 34 -390 50
-69 44 -120 117 -135 194 -9 49 -46 444 -46 497 0 24 4 43 9 43 4 0 30 -24 58
-52z m210 -177 c43 -33 114 -81 158 -108 l80 -49 0 -99 0 -100 -83 -3 c-101
-3 -158 19 -202 79 -28 40 -40 97 -56 267 -8 91 -1 92 103 13z m953 -168 c0
-30 7 -67 15 -83 9 -17 11 -31 5 -35 -19 -12 -411 84 -417 102 -4 12 1 13 142
33 44 7 114 20 155 29 41 10 81 16 88 13 7 -3 12 -24 12 -59z m2589 45 c5 -13
14 -48 21 -78 23 -103 115 -274 207 -386 18 -23 31 -48 28 -55 -5 -14 -233
-139 -253 -139 -16 0 -28 48 -66 260 -20 107 -40 215 -45 240 -10 42 -14 90
-12 117 1 13 79 63 99 63 7 0 16 -10 21 -22z m-2976 -122 c138 -36 353 -85
477 -110 287 -57 418 -86 605 -131 468 -113 569 -128 724 -102 55 9 135 28
177 42 43 14 83 24 90 21 6 -2 15 -32 19 -66 10 -84 25 -137 77 -265 56 -137
92 -251 84 -270 -6 -16 -45 -34 -156 -71 -127 -43 -239 -65 -370 -71 -172 -8
-248 8 -452 95 -138 59 -423 167 -1235 469 -68 25 -136 56 -153 68 -44 32 -89
92 -122 162 -36 76 -59 227 -40 267 6 14 14 26 17 26 3 0 119 -29 258 -64z
m635 -36 c42 -39 50 -51 38 -56 -17 -6 -163 19 -174 30 -7 8 58 76 72 76 6 -1
35 -23 64 -50z m1431 -45 c35 -17 43 -37 35 -81 -9 -47 -26 -59 -149 -100 -90
-30 -129 -37 -216 -42 -140 -6 -324 21 -499 75 -48 15 -52 18 -30 24 14 4 63
7 110 8 152 2 327 28 495 75 233 64 215 61 254 41z m1221 -415 c18 -65 -1 -77
-57 -34 -39 29 -42 47 -10 62 42 20 56 14 67 -28z m-62 -87 c76 -52 84 -68 93
-186 13 -156 27 -312 40 -417 15 -122 5 -418 -14 -438 -19 -18 -37 -8 -69 39
-22 31 -28 51 -28 94 0 41 -9 75 -39 142 -21 48 -54 138 -73 198 -61 188 -149
528 -144 551 4 14 25 30 62 46 67 31 92 27 172 -29z m-2564 -156 c192 -73 351
-137 353 -144 5 -14 -93 -73 -121 -73 -20 0 -583 226 -603 242 -7 6 -13 32
-13 59 0 40 3 49 18 48 9 0 174 -60 366 -132z m-561 39 c160 -54 693 -268 711
-286 18 -18 -5 -34 -245 -169 -31 -17 -68 -31 -83 -31 -14 0 -92 27 -173 61
-393 162 -889 372 -898 380 -5 6 -5 13 1 19 22 22 346 76 467 79 46 1 92 -10
220 -53z m-360 -237 c611 -255 662 -277 671 -292 7 -11 -6 -32 -52 -82 -34
-38 -62 -72 -62 -76 0 -23 -56 -1 -243 95 -111 57 -311 158 -443 224 -216 109
-243 125 -258 156 -16 34 -22 107 -9 119 3 4 13 7 20 7 8 0 177 -68 376 -151z
m1516 -34 c192 -85 316 -109 504 -99 l118 7 63 -64 c169 -174 276 -396 312
-649 21 -146 4 -280 -53 -420 -33 -82 -87 -161 -150 -222 -65 -63 -337 -234
-341 -214 -2 8 11 42 28 76 54 107 74 205 74 370 0 198 -30 324 -122 504 -171
333 -479 558 -799 583 -46 3 -83 9 -83 13 0 4 8 14 18 22 20 17 240 143 262
150 18 6 56 -7 169 -57z m1096 -177 c36 -111 81 -238 100 -282 39 -95 62 -157
106 -283 17 -51 40 -102 49 -114 19 -21 18 -73 -1 -109 -10 -20 -194 -101
-213 -94 -8 3 -30 25 -49 49 -32 41 -34 51 -40 138 -7 109 -29 226 -59 312
-44 131 -151 305 -262 430 -20 22 -35 44 -33 48 1 5 52 24 112 42 61 19 126
41 145 49 75 33 72 37 145 -186z m-2825 67 c33 -17 37 -27 15 -45 -27 -22 -84
13 -71 45 7 19 19 19 56 0z m-126 -43 c94 -47 173 -123 235 -226 100 -167 107
-384 16 -519 -35 -53 -88 -97 -117 -97 -13 0 -12 10 10 63 34 82 42 231 17
327 -23 90 -75 194 -132 265 -58 71 -176 154 -255 179 -32 10 -58 22 -58 26 0
21 40 30 117 27 73 -3 92 -8 167 -45z m3694 -64 c13 -35 41 -105 62 -156 21
-51 36 -100 34 -107 -5 -13 -126 -65 -186 -80 -32 -8 -64 1 -72 20 -6 18 23
109 69 213 19 43 40 99 47 125 6 26 15 47 18 47 3 0 16 -28 28 -62z m-3428 37
c36 -19 42 -39 38 -130 l-3 -70 -62 82 c-35 45 -63 86 -63 92 0 15 29 41 46
41 8 0 28 -7 44 -15z m1348 -16 c336 -89 618 -389 725 -769 18 -63 21 -102 21
-250 0 -163 -2 -180 -27 -255 -57 -170 -175 -315 -309 -379 -106 -50 -150 -60
-273 -60 -226 1 -425 92 -613 283 -252 255 -372 642 -297 961 9 36 36 107 62
158 63 128 147 214 264 270 73 35 113 47 229 66 42 7 141 -4 218 -25z m-1878
-1 c207 -64 372 -275 396 -505 17 -160 -60 -317 -188 -385 -37 -20 -58 -23
-144 -23 -96 0 -103 2 -177 38 -127 63 -237 189 -289 333 -30 83 -37 242 -13
316 62 191 231 283 415 226z m905 -170 c110 -55 203 -105 206 -110 3 -5 -7
-47 -23 -93 -15 -45 -33 -120 -40 -165 -7 -50 -17 -84 -25 -87 -14 -5 -241
116 -309 165 -25 19 -51 51 -68 83 -24 49 -26 62 -26 189 0 75 3 139 6 142 8
9 52 -11 279 -124z m3401 -43 c9 -14 21 -59 27 -100 12 -82 7 -95 -40 -110
-23 -6 -23 -6 -23 114 0 125 6 141 36 96z m612 -125 c1 -8 -14 -28 -34 -44
-34 -27 -39 -28 -97 -20 -33 5 -62 15 -65 22 -2 6 3 12 10 12 8 0 41 11 74 25
64 27 107 29 112 5z m75 -71 c12 -7 37 -25 55 -40 18 -16 40 -29 48 -29 29 0
193 -104 194 -122 0 -29 -45 -33 -103 -9 -70 29 -262 138 -278 158 -11 13 -10
18 10 34 27 22 44 24 74 8z m-178 -50 c17 -9 104 -62 195 -119 90 -56 177
-107 193 -112 38 -14 114 6 148 38 25 24 26 24 50 6 63 -49 118 -72 195 -82
87 -12 128 -39 117 -80 -22 -86 -275 -159 -456 -132 -96 15 -136 28 -339 118
-118 52 -213 85 -325 114 -87 23 -161 46 -165 53 -24 39 -19 200 7 215 7 4 89
5 182 2 126 -4 175 -9 198 -21z m-447 -56 c-2 -32 1 -91 6 -130 6 -53 5 -73
-3 -73 -7 0 -45 22 -85 50 -40 27 -89 57 -109 65 -49 20 -53 31 -22 59 29 27
158 84 193 85 21 1 22 -3 20 -56z m-258 8 c0 -16 -50 -49 -106 -71 -104 -38
-195 -55 -309 -54 -129 0 -185 9 -185 29 0 13 25 15 148 15 176 0 237 10 340
55 79 34 112 42 112 26z m126 -235 c145 -88 165 -111 113 -130 -28 -10 -72 9
-250 109 -98 56 -115 75 -81 94 41 24 78 12 218 -73z m-185 -57 c101 -63 199
-121 217 -129 66 -26 163 -4 177 40 9 28 35 25 82 -9 66 -47 102 -63 177 -73
77 -10 111 -26 121 -57 23 -74 -143 -137 -386 -148 -68 -3 -142 -1 -180 6 -35
6 -210 67 -389 135 l-325 123 -13 39 c-16 46 -11 157 9 180 11 13 37 15 169
12 l156 -3 185 -116z m578 31 c30 -8 40 -30 13 -30 -22 0 -79 27 -88 41 -5 9
5 8 75 -11z m-53 -60 c70 -24 80 -33 60 -50 -22 -17 -54 -6 -101 35 -47 40
-40 42 41 15z m-1090 -77 c7 -34 17 -70 23 -80 14 -27 249 -116 282 -108 17 4
50 -5 103 -30 71 -32 78 -38 64 -51 -46 -47 -158 -19 -473 116 -240 103 -236
101 -233 118 3 16 184 102 207 99 9 -1 19 -25 27 -64z m1241 1 c-3 -3 -12 -4
-19 -1 -8 3 -5 6 6 6 11 1 17 -2 13 -5z m-1440 -120 c263 -118 423 -180 539
-208 l71 -17 77 26 c82 28 119 30 124 4 2 -11 -27 -29 -100 -63 -92 -44 -107
-48 -153 -42 -60 7 -161 33 -348 88 -143 43 -148 43 -199 6 -15 -10 -22 -8
-46 15 -34 33 -52 85 -52 154 0 73 3 75 87 37z"/>
<path d="M2766 7319 c-22 -5 -44 -13 -50 -18 -6 -5 -20 -11 -31 -14 -16 -4
-15 -5 6 -6 14 0 43 -12 63 -26 47 -32 69 -32 101 2 25 28 32 48 18 56 -20 12
-72 14 -107 6z"/>
<path d="M2906 6992 c-3 -6 -1 -14 5 -17 15 -10 25 3 12 16 -7 7 -13 7 -17 1z"/>
<path d="M2948 6973 c6 -2 18 -2 25 0 6 3 1 5 -13 5 -14 0 -19 -2 -12 -5z"/>
<path d="M2585 6450 c-7 -11 3 -93 16 -127 10 -27 58 -53 99 -53 28 0 34 6 55
53 14 28 25 63 25 76 0 20 -3 22 -22 16 -63 -20 -85 -17 -120 14 -39 34 -44
36 -53 21z"/>
<path d="M2455 6179 c-126 -11 -165 -18 -165 -28 0 -17 34 -21 190 -21 161 0
188 6 158 36 -20 20 -67 24 -183 13z"/>
<path d="M3095 1332 c-58 -28 -112 -87 -136 -151 -17 -45 -20 -72 -17 -142 3
-72 9 -97 39 -160 69 -144 185 -229 322 -237 83 -5 137 13 189 63 64 63 83
115 83 231 0 96 -1 103 -39 179 -73 147 -185 227 -326 233 -57 2 -84 -2 -115
-16z m221 -54 c64 -29 144 -109 177 -178 102 -210 16 -411 -178 -414 -151 -2
-293 138 -327 323 -20 106 28 228 105 268 76 39 142 40 223 1z"/>
<path d="M1275 1579 c-52 -46 -68 -83 -67 -159 0 -84 27 -143 91 -204 74 -68
153 -83 231 -44 119 61 122 256 5 373 -49 48 -91 65 -164 65 -53 0 -64 -4 -96
-31z m163 -25 c54 -22 99 -71 122 -131 25 -68 25 -104 0 -153 -29 -57 -59 -73
-125 -68 -69 6 -118 43 -157 118 -47 89 -31 190 36 231 38 23 75 24 124 3z"/>
</g>
</svg>
